<svg xmlns="http://www.w3.org/2000/svg" enable-background="new 0 0 512 512" viewBox="0 0 512 512" id="team-sync">
  <path fill="#915eb2" d="M347.29,471.04h-40.53v-66.7l18.4-18.79h11.44c20.85,0,37.91,17.05,37.91,37.9v47.59H347.29z"></path>
  <path fill="#a176bd" d="M266.23,471.04h-27.22v-47.59c0-13.13,6.77-24.75,16.99-31.56c6-4,13.2-6.34,20.92-6.34h11.43
						l18.41,18.79v66.7H266.23z"></path>
  <path fill="#1ec186" d="M256,391.88v0.01c-10.22,6.81-16.99,18.43-16.99,31.56v47.59h-33.77v-66.7l18.41-18.79h11.43
						C242.8,385.55,250,387.88,256,391.88z"></path>
  <path fill="#27e19d" d="M164.71,471.04h-27.22v-47.59c0-20.84,17.06-37.9,37.91-37.9h11.44l18.4,18.79v66.7H164.71z"></path>
  <path fill="#edcdab" d="M223.65 369.88v15.67l-18.41 18.79-18.4-18.79v-16.44C197.6 378.11 212.65 378.37 223.65 369.88zM325.16 369.88v15.67l-18.4 18.79-18.41-18.79v-16.44C299.11 378.11 314.15 378.37 325.16 369.88z"></path>
  <path fill="#ffe0b9" d="M325.16 369.88c-11.01 8.49-26.05 8.23-36.81-.77-7.66-6.41-13.14-17.24-13.46-32.5 0 0 6.3-12.97 6.06-27.17 6.4-9.81 23.56 14.63 49.71-1.84 0 0 8.18 4.56 8.93 29.22 0 .03 0 .06 0 .09C339.19 352.65 333.27 363.64 325.16 369.88zM223.65 369.88c-11 8.49-26.05 8.23-36.81-.77-7.66-6.41-13.15-17.24-13.47-32.5 0 0 6.3-12.97 6.06-27.17 6.41-9.81 23.56 14.63 49.71-1.84 0 0 8.18 4.56 8.93 29.22 0 .03 0 .06 0 .09C237.67 352.64 231.75 363.63 223.65 369.88z"></path>
  <path fill="#3b93ba" d="M338 297.19c16.65 12 1.59 39.72 1.59 39.72 0-.03 0-.06 0-.09-.75-24.66-8.93-29.22-8.93-29.22-26.15 16.47-43.31-7.97-49.71 1.84.24 14.2-6.06 27.17-6.06 27.17C242.98 292.6 326.7 247.83 338 297.19zM236.48 297.19c16.66 12 1.59 39.72 1.59 39.72 0-.03 0-.06 0-.09-.75-24.66-8.93-29.22-8.93-29.22-26.15 16.47-43.3-7.97-49.71 1.84.24 14.2-6.06 27.17-6.06 27.17C141.46 292.6 225.18 247.83 236.48 297.19z"></path>
  <path fill="#31a7fb" d="M385.84,158.47c24.18,3.05,42.88,23.69,42.88,48.7c0,27.11-21.98,49.09-49.1,49.09
						c-9.85,0-18.77,0-26.82,0h-45.22c-33.44,0-88.55,0-175.2,0c-27.12,0-49.1-21.98-49.1-49.09c0-23.29,16.23-42.8,37.99-47.83
						c0.08-17.87,9.71-33.49,24.05-42.01c-1.87-5.19-2.89-10.79-2.89-16.63c0-27.11,21.98-49.09,49.1-49.09
						c16.27,0,30.69,7.92,39.62,20.11c7.27-18.03,24.92-30.76,45.55-30.76c25.31,0,46.14,19.15,48.81,43.74
						c6.36-3.01,13.48-4.7,20.99-4.7c27.11,0,49.09,21.98,49.09,49.09C395.59,140.11,391.97,150.28,385.84,158.47z"></path>
  <g>
    <path d="M374.51,476.04h-135.5c-2.761,0-5-2.238-5-5v-47.59c0-14.349,7.184-27.702,19.218-35.722
						c7.044-4.696,15.237-7.179,23.692-7.179h11.43c1.344,0,2.631,0.541,3.571,1.501l14.838,15.144l14.829-15.143
						c0.94-0.961,2.228-1.502,3.572-1.502H336.6c23.661,0,42.91,19.245,42.91,42.9v47.59
						C379.51,473.802,377.271,476.04,374.51,476.04z M244.01,466.04h125.5v-42.59c0-18.142-14.764-32.9-32.91-32.9h-9.338
						l-16.93,17.288c-0.94,0.961-2.228,1.502-3.571,1.502c-1.345,0-2.632-0.541-3.572-1.501l-16.939-17.289h-9.329
						c-6.475,0-12.749,1.902-18.146,5.5c-9.245,6.161-14.764,16.403-14.764,27.4V466.04z"></path>
    <path d="M266.23 476.04c-2.762 0-5-2.238-5-5v-47.99c0-2.762 2.238-5 5-5s5 2.238 5 5v47.99C271.23 473.802 268.992 476.04 266.23 476.04zM288.35 390.55c-2.762 0-5-2.238-5-5v-16.6c0-2.762 2.238-5 5-5s5 2.238 5 5v16.6C293.35 388.312 291.111 390.55 288.35 390.55zM325.16 390.55c-2.762 0-5-2.238-5-5v-15.79c0-2.762 2.238-5 5-5s5 2.238 5 5v15.79C330.16 388.312 327.922 390.55 325.16 390.55z"></path>
    <path d="M307.244,381.039c-7.836,0-15.661-2.706-22.103-8.094c-9.512-7.96-14.928-20.827-15.251-36.23
						c-0.058-2.761,2.133-5.046,4.895-5.104c2.753-0.066,5.045,2.134,5.104,4.895c0.262,12.474,4.406,22.691,11.67,28.771
						c8.863,7.411,21.425,7.678,30.548,0.645c7.727-5.946,12.159-16.293,12.485-29.138c0.069-2.76,2.394-4.916,5.125-4.871
						c2.761,0.069,4.941,2.364,4.871,5.125c-0.403,15.918-6.221,28.988-16.379,36.806
						C321.979,378.647,314.606,381.039,307.244,381.039z"></path>
    <path d="M339.591 341.91c-.409 0-.822-.05-1.232-.154-2.217-.563-3.769-2.559-3.769-4.846v-.013c-.417-13.384-3.154-20.054-4.9-22.978-15.971 8.298-28.83 3.438-37.547.142-1.952-.738-4.723-1.785-6.217-2.002-.477 14.097-6.276 26.196-6.539 26.735-.768 1.581-2.309 2.643-4.06 2.796-1.749.166-3.454-.622-4.485-2.046-10.046-13.855-10.802-29.894-2.075-44.003 10.27-16.601 31.899-27.352 49.25-24.471 12.277 2.037 20.892 10.261 24.416 23.237 17.635 14.823 2.232 43.732 1.551 44.988C343.094 340.935 341.39 341.91 339.591 341.91zM312.109 280.596c-12.663 0-27.526 8.386-34.838 20.207-3.532 5.71-6.395 13.888-3.283 23.413 1.123-4.239 2.052-9.4 1.963-14.69-.018-.999.266-1.98.812-2.816 4.79-7.341 12.623-4.38 18.916-2.001 8.407 3.177 18.869 7.131 32.316-1.339 1.547-.975 3.504-1.027 5.1-.137 1.086.605 4.825 3.176 7.759 11.024.029-5.017-1.397-9.854-5.777-13.01-.985-.711-1.679-1.756-1.95-2.94-2.304-10.064-7.938-15.908-16.747-17.37C314.996 280.707 313.566 280.596 312.109 280.596zM347.29 476.04c-2.762 0-5-2.238-5-5v-47.99c0-2.762 2.238-5 5-5s5 2.238 5 5v47.99C352.29 473.802 350.052 476.04 347.29 476.04zM306.76 476.04c-2.762 0-5-2.238-5-5v-66.7c0-2.762 2.238-5 5-5s5 2.238 5 5v66.7C311.76 473.802 309.521 476.04 306.76 476.04zM239.01 476.04H137.49c-2.761 0-5-2.238-5-5v-47.59c0-23.655 19.249-42.9 42.91-42.9h11.44c1.344 0 2.632.541 3.572 1.502l14.829 15.143 14.837-15.144c.94-.96 2.228-1.501 3.571-1.501h11.43c8.464 0 16.658 2.479 23.693 7.17 2.298 1.531 2.919 4.636 1.387 6.934-1.53 2.298-4.635 2.919-6.934 1.387-5.388-3.592-11.663-5.49-18.146-5.49h-9.329l-16.939 17.289c-.94.96-2.228 1.501-3.571 1.501 0 0 0 0 0 0-1.344 0-2.631-.541-3.572-1.502l-16.93-17.288H175.4c-18.146 0-32.91 14.759-32.91 32.9v42.59h96.52c2.761 0 5 2.238 5 5S241.771 476.04 239.01 476.04z"></path>
    <path d="M164.71 476.04c-2.761 0-5-2.238-5-5v-47.99c0-2.762 2.239-5 5-5s5 2.238 5 5v47.99C169.71 473.802 167.471 476.04 164.71 476.04zM186.84 390.55c-2.761 0-5-2.238-5-5v-16.6c0-2.762 2.239-5 5-5s5 2.238 5 5v16.6C191.84 388.312 189.601 390.55 186.84 390.55zM223.65 390.55c-2.761 0-5-2.238-5-5v-15.79c0-2.762 2.239-5 5-5s5 2.238 5 5v15.79C228.65 388.312 226.411 390.55 223.65 390.55z"></path>
    <path d="M205.736,381.042c-7.835,0-15.661-2.708-22.104-8.097c-9.519-7.966-14.938-20.832-15.261-36.23
						c-0.058-2.761,2.133-5.046,4.894-5.104c2.786-0.066,5.046,2.134,5.104,4.895c0.261,12.468,4.409,22.686,11.68,28.771
						c8.867,7.417,21.429,7.683,30.546,0.646c7.72-5.956,12.15-16.305,12.477-29.139c0.07-2.761,2.383-4.921,5.125-4.871
						c2.761,0.07,4.941,2.364,4.872,5.125c-0.404,15.901-6.216,28.971-16.364,36.802C220.473,378.648,213.1,381.042,205.736,381.042
						z"></path>
    <path d="M238.07 341.91c-.409 0-.822-.05-1.232-.154-2.216-.563-3.768-2.559-3.768-4.846v-.013c-.417-13.384-3.154-20.054-4.901-22.978-15.97 8.296-28.827 3.436-37.54.143-1.955-.739-4.729-1.788-6.223-2.004-.477 14.097-6.276 26.197-6.538 26.736-.768 1.581-2.309 2.643-4.06 2.796-1.75.166-3.454-.622-4.485-2.046-10.046-13.855-10.803-29.894-2.075-44.003 10.268-16.601 31.9-27.354 49.249-24.471 12.277 2.037 20.892 10.262 24.416 23.236 17.646 14.824 2.233 43.735 1.55 44.991C241.573 340.936 239.87 341.91 238.07 341.91zM210.59 280.596c-12.664 0-27.527 8.387-34.838 20.207-3.532 5.71-6.393 13.889-3.284 23.412 1.123-4.238 2.052-9.4 1.963-14.69-.017-1 .267-1.981.813-2.818 4.795-7.339 12.628-4.376 18.921-1.998 8.403 3.177 18.861 7.131 32.31-1.339 1.547-.975 3.502-1.027 5.1-.137 1.085.605 4.829 3.177 7.763 11.035.031-5.02-1.395-9.861-5.78-13.02-.986-.711-1.68-1.757-1.952-2.941-2.304-10.064-7.938-15.908-16.747-17.37C213.476 280.707 212.046 280.596 210.59 280.596zM205.24 476.04c-2.761 0-5-2.238-5-5v-66.7c0-2.762 2.239-5 5-5s5 2.238 5 5v66.7C210.24 473.802 208.001 476.04 205.24 476.04zM379.62 261.26H132.38c-29.831 0-54.1-24.265-54.1-54.09 0-24.038 15.502-44.78 38.147-51.706 1.241-16.097 9.739-30.986 22.972-40.257-1.308-4.702-1.969-9.566-1.969-14.507 0-29.826 24.269-54.09 54.1-54.09 14.5 0 28.392 5.905 38.482 16.096 9.607-16.469 27.187-26.746 46.688-26.746 25.48 0 47.1 17.566 52.698 41.796C334.883 75.925 340.611 75 346.5 75c29.825 0 54.09 24.265 54.09 54.09 0 9.191-2.26 18.022-6.589 25.921 23.104 6.347 39.719 27.566 39.719 52.159C433.72 236.995 409.451 261.26 379.62 261.26zM191.53 56.61c-24.316 0-44.1 19.779-44.1 44.09 0 5.133.873 10.158 2.594 14.936.813 2.254-.09 4.769-2.15 5.993-13.256 7.876-21.535 22.335-21.604 37.734-.01 2.319-1.614 4.327-3.874 4.849-20.087 4.644-34.116 22.309-34.116 42.958 0 24.311 19.783 44.09 44.1 44.09h247.24c24.316 0 44.1-19.779 44.1-44.09 0-22.167-16.554-40.97-38.506-43.739-1.767-.223-3.281-1.368-3.977-3.007s-.468-3.524.6-4.95c5.727-7.651 8.753-16.774 8.753-26.384 0-24.311-19.778-44.09-44.09-44.09-6.593 0-12.936 1.42-18.852 4.22-1.462.692-3.17.633-4.581-.157s-2.354-2.215-2.528-3.823c-2.432-22.393-21.278-39.28-43.839-39.28-18.086 0-34.146 10.845-40.913 27.63-.679 1.683-2.216 2.866-4.017 3.092-1.797.226-3.582-.543-4.654-2.007C218.83 63.363 205.527 56.61 191.53 56.61z"></path>
    <path d="M307.71,169c-2.762,0-5-2.239-5-5c0-25.762-20.954-46.72-46.71-46.72c-12.478,0-24.209,4.86-33.034,13.686
						c-1.952,1.952-5.118,1.952-7.071,0c-1.953-1.953-1.953-5.119,0-7.071C226.608,113.18,240.852,107.28,256,107.28
						c31.27,0,56.71,25.444,56.71,56.72C312.71,166.761,310.472,169,307.71,169z"></path>
    <path d="M241.21 132.43h-21.78c-2.761 0-5-2.239-5-5v-21.77c0-2.761 2.239-5 5-5s5 2.239 5 5v16.77h16.78c2.761 0 5 2.239 5 5S243.971 132.43 241.21 132.43zM256 220.71c-31.27 0-56.71-25.44-56.71-56.71 0-2.761 2.239-5 5-5s5 2.239 5 5c0 25.756 20.954 46.71 46.71 46.71 12.475 0 24.207-4.857 33.037-13.678 1.953-1.951 5.119-1.949 7.07.004 1.952 1.954 1.95 5.12-.004 7.071C285.386 214.813 271.144 220.71 256 220.71z"></path>
    <path d="M292.57,227.34c-2.762,0-5-2.239-5-5v-16.77h-16.78c-2.762,0-5-2.239-5-5s2.238-5,5-5h21.78c2.762,0,5,2.239,5,5v21.77
						C297.57,225.101,295.332,227.34,292.57,227.34z"></path>
  </g>
</svg>
