<svg width="626" height="626" viewBox="0 0 626 626" fill="none" xmlns="http://www.w3.org/2000/svg">
<path d="M433.957 147.556C433.221 146.084 431.882 145.013 430.276 144.678C428.67 144.411 426.997 144.946 425.792 146.084L396.814 175.062L372.99 151.237L401.968 122.192C403.172 121.055 403.708 119.382 403.373 117.776C403.105 116.169 402.035 114.764 400.495 114.094C375.755 102.972 346.171 107.626 325.943 127.747C308.61 145.013 302.252 169.909 308.944 193.265L188.55 313.592C166.114 307.29 140.751 312.845 123.032 330.658C97.0661 356.624 97.0661 398.919 123.032 425.019C149.018 451.005 191.411 451.002 217.394 425.019C234.66 407.686 241.084 382.858 234.392 359.502L354.787 239.107C377.965 245.618 402.791 239.53 420.304 222.108C439.779 202.701 445.267 172.719 433.957 147.556ZM195.911 403.537C181.791 417.724 158.635 417.724 144.514 403.537C130.327 389.349 130.327 366.261 144.514 352.073C158.635 337.885 181.791 337.885 195.911 352.073C210.099 366.261 210.099 389.349 195.911 403.537Z" fill="black"/>
<path d="M402.197 387.375C396.583 387.375 392.018 391.966 392.018 397.612C392.018 403.226 396.583 407.795 402.197 407.795C407.843 407.795 412.438 403.226 412.438 397.612C412.438 391.966 407.843 387.375 402.197 387.375Z" fill="black"/>
<path d="M491.319 479.579C510.138 459.142 521.972 432.275 523.19 402.602H499.67V392.564H523.19C521.971 362.892 510.137 336.025 491.318 315.589L474.678 332.232L467.581 325.134L484.22 308.491C463.784 289.673 436.917 277.839 407.245 276.622V300.143H397.207V276.622C367.536 277.84 340.669 289.675 320.233 308.493L336.875 325.134L329.777 332.232L313.136 315.59C294.318 336.026 282.484 362.892 281.265 392.564H304.786V402.602H281.265C282.482 432.274 294.316 459.141 313.134 479.577L329.777 462.938L336.875 470.035L320.232 486.675C340.668 505.494 367.535 517.328 397.207 518.547V495.027H407.245V518.547C436.918 517.329 463.785 505.495 484.222 486.676L467.581 470.035L474.678 462.938L491.319 479.579ZM402.197 417.833C398.305 417.833 394.701 416.676 391.614 414.763L357.285 449.092L350.188 441.995L384.674 407.508C383.009 404.57 381.979 401.225 381.979 397.612C381.979 388.17 388.478 380.28 397.207 378.036V335.111H407.245V378.049C415.978 380.309 422.476 388.186 422.476 397.612C422.476 408.762 413.379 417.833 402.197 417.833Z" fill="black"/>
<path d="M281.015 397.549L281.009 397.582L281.015 397.616V397.549Z" fill="black"/>
<path d="M487.912 483.321C487.929 483.304 487.946 483.287 487.964 483.27L487.912 483.321Z" fill="black"/>
</svg>
