<svg xmlns="http://www.w3.org/2000/svg" width="128" height="128" viewBox="0 0 33.867 33.867" id="marketing">
  <g transform="translate(0 -263.133)">
    <path fill="#6c95f8" d="m24.79 279.961-2.858.147c-4.398.204-5.167 4.434-6.126 6.095l-2.157-1.258c-.961.961-1.41 1.79-1.944 2.469 1.285.903 2.58 1.679 3.272 2.126 1.577.817 3.125-.483 4.047-1.729v8.131h10.36v-3.91c.403.196.978.293 1.662-.098 1.368-.782 1.045-2.138 1.045-2.138s-1.964-6.364-2.137-6.71c-.5-1.258-1.716-1.77-1.716-1.77z"></path>
    <path fill="#566ff8" d="M28.651 290.024c-.264.199-.37.275-.713.533l1.446 1.475c.403.196.978.293 1.662-.098.486-.278.756-.627.906-.964a.53.53 0 0 0-.912-.095c-.304.389-.594.459-.848.473-.207.011-.294-.025-.34-.04l-.581-.611zm-10.03-4.424c-.245.016-.481.243-.485.493v2.708c.334-.305.635-.649.888-.99v-1.971c-.106-.183-.256-.25-.403-.24z" color="#000" font-family="sans-serif" font-weight="400" overflow="visible" style="line-height:normal;font-variant-ligatures:normal;font-variant-position:normal;font-variant-caps:normal;font-variant-numeric:normal;font-variant-alternates:normal;font-feature-settings:normal;text-indent:0;text-align:start;text-decoration-line:none;text-decoration-style:solid;text-decoration-color:#000;text-transform:none;text-orientation:mixed;shape-padding:0;isolation:auto;mix-blend-mode:normal"></path>
    <path fill="none" stroke="#00002c" stroke-linecap="round" stroke-linejoin="round" stroke-width=".529" d="M29.384 295.942v-3.91c.403.196.978.293 1.662-.098 1.368-.782 1.045-2.138 1.045-2.138s-1.964-6.364-2.137-6.71c-.5-1.258-1.716-1.77-1.716-1.77l-1.847-.726m-4.46-.482c-4.397.204-5.166 4.434-6.125 6.095l-2.157-1.258c-.961.961-1.41 1.79-1.944 2.469 1.285.903 2.58 1.679 3.272 2.126 1.577.817 3.125-.483 4.047-1.729v8.131"></path>
    <path fill="#ffb6cd" d="M10.557 283.045c-.72-.446-1.618-.431-2.152.228-.533.659-.48 1.685.228 2.15l1.69 1.115 1.91-2.456z"></path>
    <path fill="#dfe5ff" d="M11.705 287.414c.93-1.19 1.426-1.825 1.944-2.469l-1.416-.863-1.91 2.456z"></path>
    <path fill="#fc3133" d="m22.501 285.357-.427 6.545c0 1.782 2.375 1.855 2.375 0l-.486-6.486c-.492.458-1.126.315-1.462-.06z"></path>
    <path fill="#fff" d="M23.262 283.436c.64 0 1.157.072 1.157.713 0 2.076-2.315 2.069-2.315 0 0-.64.516-.713 1.158-.713z"></path>
    <path fill="#e51b3a" d="M23.976 289.096a.53.53 0 0 0-.53.58l.178 2.225c.012.231-.012.51-.222.513a.53.53 0 0 0-.413.812c.67.171 1.46-.253 1.46-1.323l-.204-2.731a.53.53 0 0 0-.27-.076z" color="#000" font-family="sans-serif" font-weight="400" overflow="visible" style="line-height:normal;font-variant-ligatures:normal;font-variant-position:normal;font-variant-caps:normal;font-variant-numeric:normal;font-variant-alternates:normal;font-feature-settings:normal;text-indent:0;text-align:start;text-decoration-line:none;text-decoration-style:solid;text-decoration-color:#000;text-transform:none;text-orientation:mixed;shape-padding:0;isolation:auto;mix-blend-mode:normal"></path>
    <path fill="none" stroke="#00002c" stroke-linecap="round" stroke-linejoin="round" stroke-width=".529" d="m22.433 286.4-.359 5.502c0 1.782 2.375 1.855 2.375 0l-.406-5.417m-.781-3.049c.64 0 1.157.072 1.157.713 0 2.076-2.315 2.069-2.315 0 0-.64.516-.713 1.158-.713z"></path>
    <path fill="#ff80bd" d="m10.848 285.863-.865-.542a.53.53 0 0 0-.827.447l1.168.77z" color="#000" font-family="sans-serif" font-weight="400" overflow="visible" style="line-height:normal;font-variant-ligatures:normal;font-variant-position:normal;font-variant-caps:normal;font-variant-numeric:normal;font-variant-alternates:normal;font-feature-settings:normal;text-indent:0;text-align:start;text-decoration-line:none;text-decoration-style:solid;text-decoration-color:#000;text-transform:none;text-orientation:mixed;shape-padding:0;isolation:auto;mix-blend-mode:normal"></path>
    <path fill="#c4d1ff" d="m10.848 285.863-.524.675 1.38.876c.257-.327.336-.423.535-.678z" color="#000" font-family="sans-serif" font-weight="400" overflow="visible" style="line-height:normal;font-variant-ligatures:normal;font-variant-position:normal;font-variant-caps:normal;font-variant-numeric:normal;font-variant-alternates:normal;font-feature-settings:normal;text-indent:0;text-align:start;text-decoration-line:none;text-decoration-style:solid;text-decoration-color:#000;text-transform:none;text-orientation:mixed;shape-padding:0;isolation:auto;mix-blend-mode:normal"></path>
    <path fill="none" stroke="#00002c" stroke-linecap="round" stroke-linejoin="round" stroke-width=".529" d="M11.705 287.414c.93-1.19 1.426-1.825 1.944-2.469l-1.416-.863-1.91 2.456z"></path>
    <path fill="none" stroke="#00002c" stroke-linecap="round" stroke-linejoin="round" stroke-width=".529" d="m12.233 284.082-1.676-1.037c-.72-.446-1.618-.431-2.152.228-.533.659-.48 1.685.228 2.15l1.69 1.115"></path>
    <path fill="#ffc8d7" d="M27.959 286.04c-.581-.617-1.452-.835-2.137-.336-.686.498-.9 1.503-.337 2.136l1.346 1.514 2.479-1.88z"></path>
    <path fill="#dfe5ff" d="M27.938 290.557c1.207-.909 1.85-1.394 2.516-1.882l-1.144-1.2-2.48 1.879z"></path>
    <path fill="#c4d1ff" d="m27.541 288.815-.71.539 1.107 1.203c.342-.258.449-.334.713-.533z" color="#000" font-family="sans-serif" font-weight="400" overflow="visible" style="line-height:normal;font-variant-ligatures:normal;font-variant-position:normal;font-variant-caps:normal;font-variant-numeric:normal;font-variant-alternates:normal;font-feature-settings:normal;text-indent:0;text-align:start;text-decoration-line:none;text-decoration-style:solid;text-decoration-color:#000;text-transform:none;text-orientation:mixed;shape-padding:0;isolation:auto;mix-blend-mode:normal"></path>
    <path fill="#ff9bbf" d="m25.714 288.098 1.116 1.256.711-.539-.909-.989a.53.53 0 0 0-.373-.177.53.53 0 0 0-.545.45z" color="#000" font-family="sans-serif" font-weight="400" overflow="visible" style="line-height:normal;font-variant-ligatures:normal;font-variant-position:normal;font-variant-caps:normal;font-variant-numeric:normal;font-variant-alternates:normal;font-feature-settings:normal;text-indent:0;text-align:start;text-decoration-line:none;text-decoration-style:solid;text-decoration-color:#000;text-transform:none;text-orientation:mixed;shape-padding:0;isolation:auto;mix-blend-mode:normal"></path>
    <path fill="none" stroke="#00002c" stroke-linecap="round" stroke-linejoin="round" stroke-width=".529" d="M27.938 290.557c1.207-.909 1.85-1.394 2.516-1.882l-1.144-1.2-2.48 1.879z"></path>
    <path fill="none" stroke="#00002c" stroke-linecap="round" stroke-linejoin="round" stroke-width=".529" d="M27.959 286.04c-.581-.617-1.452-.835-2.137-.336-.686.498-.9 1.503-.337 2.136l1.346 1.514 2.479-1.88z"></path>
    <path fill="#4045bc" stroke="#00002c" stroke-linecap="round" stroke-linejoin="round" stroke-width=".529" d="m27.938 290.557 1.446 1.475"></path>
    <path fill="#ffc8d7" d="M25.084 278.738a3.1 3.1 0 0 1-2.36 1.077c-.374 0-.728-.064-1.06-.183v.787c0 .948.762 1.71 1.71 1.71.947 0 1.71-.762 1.71-1.71zm-5.5-4.531a1.424 1.424 0 0 0-.987 1.355c0 .645.41 1.187.995 1.366a3.316 3.316 0 0 1-.009-.255z"></path>
    <path fill="#ff9bbf" d="M25.084 278.738a3.099 3.099 0 0 1-2.36 1.076l-.046-.002a.53.53 0 0 0 .429.817s.145 0 .322-.033c.177-.033.426-.1.758-.225.306-.116.613-.289.897-.478z" color="#000" font-family="sans-serif" font-weight="400" overflow="visible" style="line-height:normal;font-variant-ligatures:normal;font-variant-position:normal;font-variant-caps:normal;font-variant-numeric:normal;font-variant-alternates:normal;font-feature-settings:normal;text-indent:0;text-align:start;text-decoration-line:none;text-decoration-style:solid;text-decoration-color:#000;text-transform:none;text-orientation:mixed;shape-padding:0;isolation:auto;mix-blend-mode:normal"></path>
    <path fill="#ffc8d7" d="M22.724 270.111c-1.74 0-3.142 1.401-3.142 3.141v3.421c0 1.74 1.401 3.142 3.142 3.142a3.124 3.124 0 0 0 3.11-2.827h.451c.793 0 1.431-.64 1.431-1.433 0-.792-.638-1.43-1.43-1.43h-.42v-.873c0-1.74-1.402-3.14-3.142-3.14z"></path>
    <path fill="none" stroke="#00002c" stroke-linecap="round" stroke-linejoin="round" stroke-width=".529" d="M21.663 279.632v.787c0 .948.763 1.71 1.71 1.71.948 0 1.711-.762 1.711-1.71v-1.681m-5.5-4.531a1.424 1.424 0 0 0-.987 1.355c0 .645.41 1.187.995 1.366a3.316 3.316 0 0 1-.009-.255z"></path>
    <path fill="none" stroke="#00002c" stroke-linecap="round" stroke-linejoin="round" stroke-width=".529" d="M22.724 270.111c-1.74 0-3.142 1.401-3.142 3.141v3.421c0 1.74 1.401 3.142 3.142 3.142a3.124 3.124 0 0 0 3.11-2.827h.451c.793 0 1.431-.64 1.431-1.433 0-.792-.638-1.43-1.43-1.43h-.42v-.873c0-1.74-1.402-3.14-3.142-3.14z"></path>
    <path fill="#333" d="M18.383 273.277c0 1.007.188 1.84 1.2 1.84v-1.84h4.632l.603 1.284s.176.506.63.506c.453 0 .418-.47.418-.47v-.473h.4c.337-.006.581.1.82.242v-2.694c-.149-3.395-2.109-1.317-6.858-3.087-2.78-.821-2.95 3.716-1.845 4.692z"></path>
    <path fill="#1a1a1a" d="M20.11 270.865a.529.529 0 0 0-.533.576s.03.428.153.881c.06.227.14.465.29.692.06.09.14.182.24.262h3.955l.466.993a.53.53 0 0 0 .56-.746l-.338-.771a.53.53 0 0 0-.484-.316H21.13c-.193 0-.307-.185-.379-.391a4.48 4.48 0 0 1-.12-.682.53.53 0 0 0-.52-.498z" color="#000" font-family="sans-serif" font-weight="400" overflow="visible" style="line-height:normal;font-variant-ligatures:normal;font-variant-position:normal;font-variant-caps:normal;font-variant-numeric:normal;font-variant-alternates:normal;font-feature-settings:normal;text-indent:0;text-align:start;text-decoration-line:none;text-decoration-style:solid;text-decoration-color:#000;text-transform:none;text-orientation:mixed;shape-padding:0;isolation:auto;mix-blend-mode:normal"></path>
    <path fill="#4d4d4d" d="M19.514 268.488c-1.847.084-2.095 3.077-1.433 4.377a.53.53 0 0 0 .631-.765c-.474-1.055.022-3.106 1.39-2.655a.53.53 0 0 0 .689-.665c-.184-.06-.37-.123-.563-.195a2.17 2.17 0 0 0-.714-.097z" color="#000" font-family="sans-serif" font-weight="400" overflow="visible" style="line-height:normal;font-variant-ligatures:normal;font-variant-position:normal;font-variant-caps:normal;font-variant-numeric:normal;font-variant-alternates:normal;font-feature-settings:normal;text-indent:0;text-align:start;text-decoration-line:none;text-decoration-style:solid;text-decoration-color:#000;text-transform:none;text-orientation:mixed;shape-padding:0;isolation:auto;mix-blend-mode:normal"></path>
    <path fill="none" stroke="#00002c" stroke-linecap="round" stroke-linejoin="round" stroke-width=".529" d="M18.383 273.277c0 1.007.188 1.84 1.2 1.84v-1.84h4.632l.603 1.284s.176.506.63.506c.453 0 .418-.47.418-.47v-.473h.4c.337-.006.581.1.82.242v-2.694c-.149-3.395-2.109-1.317-6.858-3.087-2.78-.821-2.95 3.716-1.845 4.692z"></path>
    <path fill="#333" d="m13.847 282.004-4.444 6.12a.65.65 0 0 1-.908.143l-1.142-.829a.65.65 0 0 1-.144-.908l4.444-6.12a.65.65 0 0 1 .908-.144l1.142.83a.65.65 0 0 1 .144.908z"></path>
    <path fill="none" stroke="#00002c" stroke-linecap="round" stroke-linejoin="round" stroke-width=".529" d="m13.847 282.004-4.444 6.12a.65.65 0 0 1-.908.143l-1.142-.829a.65.65 0 0 1-.144-.908l4.444-6.12a.65.65 0 0 1 .908-.144l1.142.83a.65.65 0 0 1 .144.908z"></path>
    <rect width="3.789" height="2.385" x="-221.784" y="178.397" fill="#ffc8d7" rx=".936" ry=".936" transform="rotate(-52.65)"></rect>
    <path fill="#ff9bbf" d="M10.31 283.426a.53.53 0 0 0-.443.218L8.5 285.469a.93.93 0 0 0 1.225-.23l1.082-1.419a.53.53 0 0 0-.497-.394z" color="#000" font-family="sans-serif" font-weight="400" overflow="visible" style="line-height:normal;font-variant-ligatures:normal;font-variant-position:normal;font-variant-caps:normal;font-variant-numeric:normal;font-variant-alternates:normal;font-feature-settings:normal;text-indent:0;text-align:start;text-decoration-line:none;text-decoration-style:solid;text-decoration-color:#000;text-transform:none;text-orientation:mixed;shape-padding:0;isolation:auto;mix-blend-mode:normal"></path>
    <path fill="none" stroke="#00002c" stroke-linecap="round" stroke-linejoin="round" stroke-width=".529" d="m7.828 283.792 1.162-1.523a.934.934 0 0 1 1.312-.176l.408.31c.412.315.49.9.176 1.313l-1.162 1.523a.934.934 0 0 1-1.313.176l-.407-.31a.934.934 0 0 1-.176-1.313z"></path>
    <path fill="none" d="m19.024 281.95-2.613 2.26-2.608 1.962 1.665 2.175s.748.702 1.917-.047c1.17-.748 1.64 2.696 1.64 2.696z"></path>
    <path fill="#fc3133" d="M13.998 277.41v4.861h1.438a2.426 2.426 0 0 0 2.431-2.43 2.426 2.426 0 0 0-2.43-2.431z"></path>
    <path fill="#dfe5ff" d="M6.313 275.35v8.445l7.684-1.524v-4.861z"></path>
    <path fill="#e51b3a" d="M66.148 61.607a2 2 0 0 0-1.984 2.016c-.019 2.257-1.26 3.467-2.762 4.385-1.457.891-2.852 1.177-2.937 1.195h-5.56v3.131h5.437a9.167 9.167 0 0 0 9.123-10.244 2 2 0 0 0-1.317-.483z" color="#000" font-family="sans-serif" font-weight="400" overflow="visible" paint-order="fill markers stroke" style="line-height:normal;font-variant-ligatures:normal;font-variant-position:normal;font-variant-caps:normal;font-variant-numeric:normal;font-variant-alternates:normal;font-feature-settings:normal;text-indent:0;text-align:start;text-decoration-line:none;text-decoration-style:solid;text-decoration-color:#000;text-transform:none;text-orientation:mixed;shape-padding:0;isolation:auto;mix-blend-mode:normal" transform="translate(0 263.133)scale(.26458)"></path>
    <path fill="#c4d1ff" d="M23.861 74.852v3.24l29.043-5.758v-3.13h-.455a2 2 0 0 0-.517.066l-.746.199z" color="#000" font-family="sans-serif" font-weight="400" overflow="visible" paint-order="fill markers stroke" style="line-height:normal;font-variant-ligatures:normal;font-variant-position:normal;font-variant-caps:normal;font-variant-numeric:normal;font-variant-alternates:normal;font-feature-settings:normal;text-indent:0;text-align:start;text-decoration-line:none;text-decoration-style:solid;text-decoration-color:#000;text-transform:none;text-orientation:mixed;shape-padding:0;isolation:auto;mix-blend-mode:normal" transform="translate(0 263.133)scale(.26458)"></path>
    <path fill="none" stroke="#00002c" stroke-linecap="round" stroke-linejoin="round" stroke-width=".529" d="M13.998 277.41v4.861h1.438a2.426 2.426 0 0 0 2.431-2.43 2.426 2.426 0 0 0-2.43-2.431zm5.026 10.401v-1.97"></path>
    <path fill="#dfe5ff" d="M4.13 277.325a2.122 2.122 0 0 0-1.87 2.11c0 1.092.814 1.984 1.87 2.112z"></path>
    <path fill="#c4d1ff" d="M3.77 278.578a.53.53 0 0 0-.522.537v2.116c.26.166.56.276.882.315v-2.833a.53.53 0 0 0-.36-.135Z"></path>
    <path fill="#ff9e4f" d="M9.56 268.339a.56.56 0 0 1-.568-.556l-.033-3.026a.561.561 0 1 1 1.124-.013l.033 3.026a.559.559 0 0 1-.555.569z"></path>
    <path fill="none" stroke="#00002c" stroke-linecap="round" stroke-linejoin="round" stroke-width=".529" d="M9.56 268.339a.56.56 0 0 1-.568-.556l-.033-3.026a.561.561 0 1 1 1.124-.013l.033 3.026a.559.559 0 0 1-.555.569z"></path>
    <path fill="#fc3133" d="M5.222 274.096c.604 0 1.091.487 1.091 1.092v8.724c0 .604-.487 1.091-1.091 1.091a1.089 1.089 0 0 1-1.092-1.091v-8.724c0-.605.487-1.092 1.092-1.092z"></path>
    <path fill="#e51b3a" d="M22.057 61.172a2 2 0 0 0-1.971 2.032v19.419a4.101 4.101 0 0 0 3.773-4.09V62.245a2 2 0 0 0-1.802-1.073z" color="#000" font-family="sans-serif" font-weight="400" overflow="visible" paint-order="fill markers stroke" style="line-height:normal;font-variant-ligatures:normal;font-variant-position:normal;font-variant-caps:normal;font-variant-numeric:normal;font-variant-alternates:normal;font-feature-settings:normal;text-indent:0;text-align:start;text-decoration-line:none;text-decoration-style:solid;text-decoration-color:#000;text-transform:none;text-orientation:mixed;shape-padding:0;isolation:auto;mix-blend-mode:normal" transform="translate(0 263.133)scale(.26458)"></path>
    <path fill="none" stroke="#00002c" stroke-linecap="round" stroke-linejoin="round" stroke-width=".529" d="m6.313 283.795 7.684-1.524m0-4.861-6.529-1.75M3.252 277.636a2.12 2.12 0 0 0-.991 1.8c0 1.09.813 1.983 1.869 2.11"></path>
    <path fill="none" stroke="#00002c" stroke-linecap="round" stroke-linejoin="round" stroke-width=".529" d="M5.222 274.096c.604 0 1.091.487 1.091 1.092v8.724c0 .604-.487 1.091-1.091 1.091a1.089 1.089 0 0 1-1.092-1.091v-8.724c0-.605.487-1.092 1.092-1.092z"></path>
    <path fill="#ff9e4f" d="M9.505 272.132a.566.566 0 0 1-.548-.575v-.892c-.001-.312.264-.556.575-.548a.566.566 0 0 1 .548.575l.001.892c0 .312-.264.56-.576.548z"></path>
    <path fill="none" stroke="#00002c" stroke-linecap="round" stroke-linejoin="round" stroke-width=".529" d="M10.081 271.584c0 .312-.264.56-.576.549h0a.566.566 0 0 1-.548-.576v-.892c-.001-.312.264-.556.575-.548a.566.566 0 0 1 .548.575"></path>
    <path fill="#ff9e4f" d="M14.838 269.457a.558.558 0 0 1-.214-.765l.822-1.414a.564.564 0 0 1 .766-.214.558.558 0 0 1 .215.765l-.823 1.414a.562.562 0 0 1-.766.214zm-1.894 3.282a.566.566 0 0 1-.215-.765l.417-.789a.556.556 0 0 1 .765-.214c.272.152.36.49.215.765l-.417.789a.554.554 0 0 1-.765.214z"></path>
    <path fill="none" stroke="#00002c" stroke-linecap="round" stroke-linejoin="round" stroke-width=".529" d="M12.944 272.74a.566.566 0 0 1-.215-.766l.417-.789a.556.556 0 0 1 .765-.214c.272.152.36.49.215.765l-.417.789a.554.554 0 0 1-.765.214z"></path>
    <path fill="#ff9e4f" d="M4.064 269.457a.56.56 0 0 0 .215-.765l-1.484-2.637a.561.561 0 1 0-.98.55l1.483 2.638c.153.271.496.37.766.214z"></path>
    <path fill="none" stroke="#00002c" stroke-linecap="round" stroke-linejoin="round" stroke-width=".529" d="M3.298 269.243c.153.271.496.37.766.214h0a.56.56 0 0 0 .215-.765l-1.484-2.637a.561.561 0 1 0-.98.55l.914 1.626.072.129"></path>
    <path fill="#ff9e4f" d="M5.959 272.74a.566.566 0 0 0 .215-.766l-.417-.789a.556.556 0 0 0-.766-.214.566.566 0 0 0-.215.765l.417.789c.146.275.496.37.766.214z"></path>
    <path fill="none" stroke="#00002c" stroke-linecap="round" stroke-linejoin="round" stroke-width=".529" d="M5.959 272.74a.566.566 0 0 0 .215-.766l-.417-.789a.556.556 0 0 0-.766-.214.566.566 0 0 0-.215.765l.417.789c.146.275.496.37.766.214zm9.487-5.462a.564.564 0 0 1 .766-.214.558.558 0 0 1 .215.765l-.823 1.414a.562.562 0 0 1-.766.214h0a.558.558 0 0 1-.214-.765l.32-.549"></path>
  </g>
</svg>
