<svg width="626" height="626" viewBox="0 0 626 626" fill="none" xmlns="http://www.w3.org/2000/svg">
<path d="M519.367 480.807H419.808V431.763C453.217 407.708 474.131 373.43 474.131 335.545C474.131 334.876 473.997 334.208 473.997 333.54C494.443 330.333 510.146 312.693 510.146 291.378C510.146 287.703 507.139 284.696 503.464 284.696C499.789 284.696 496.782 287.703 496.782 291.378C496.782 305.677 486.425 317.637 472.861 320.176C472.393 317.303 471.993 314.43 471.324 311.624C470.188 306.88 468.718 302.269 466.914 297.792C450.143 306.412 431.233 311.356 411.121 311.356C348.713 311.356 297.129 264.517 289.378 204.18C284.568 204.447 279.823 204.915 275.146 205.516C262.718 207.053 250.824 209.592 239.532 213.067C237.528 195.828 222.761 182.531 205.054 182.531H196.368C192.559 182.531 189.485 185.605 189.485 189.413V236.854C167.836 251.621 151.065 270.597 141.309 291.979H117.255C110.707 291.979 105.695 297.859 106.564 304.407L111.041 334.876C126.409 342.293 139.238 342.026 152.134 333.74C155.274 331.736 159.35 332.671 161.355 335.745C163.359 338.819 162.424 342.961 159.283 344.966C150.33 350.645 141.109 353.519 131.487 353.519C125.54 353.519 119.46 352.316 113.246 350.111L115.584 366.014C116.386 371.292 120.93 375.235 126.275 375.235H139.639C148.593 397.017 164.763 416.261 185.877 431.495V480.674H107.633C103.958 480.674 100.951 483.68 100.951 487.355C100.951 491.03 103.958 494.037 107.633 494.037H519.367C523.042 494.037 526.048 491.03 526.048 487.355C526.048 483.68 523.042 480.807 519.367 480.807ZM180.999 287.168C180.999 280.286 186.545 274.807 193.361 274.807C200.243 274.807 205.722 280.353 205.722 287.168C205.722 293.984 200.176 299.53 193.361 299.53C186.545 299.596 180.999 294.05 180.999 287.168ZM254.767 461.965C270.068 465.439 286.171 467.243 302.943 467.243C319.647 467.243 335.75 465.372 350.918 461.965V480.807H254.767V461.965Z" fill="black"/>
<path d="M411.122 297.926C471.659 297.926 520.637 248.881 520.637 188.411C520.637 127.94 471.592 78.8959 411.122 78.8959C350.651 78.8959 301.607 127.94 301.607 188.411C301.54 248.881 350.584 297.926 411.122 297.926ZM499.188 181.729C502.863 181.729 505.87 184.736 505.87 188.411C505.87 192.086 502.863 195.093 499.188 195.093C495.513 195.093 492.506 192.086 492.506 188.411C492.506 184.669 495.446 181.729 499.188 181.729ZM411.122 283.159C407.447 283.159 404.44 280.152 404.44 276.477C404.44 272.802 407.447 269.795 411.122 269.795C414.797 269.795 417.803 272.802 417.803 276.477C417.803 280.152 414.797 283.159 411.122 283.159ZM468.652 121.392C471.258 118.786 475.467 118.786 478.073 121.392C480.679 123.998 480.679 128.208 478.073 130.814C475.467 133.42 471.258 133.42 468.652 130.814C466.046 128.208 466.046 123.998 468.652 121.392ZM468.652 245.941C471.258 243.335 475.467 243.335 478.073 245.941C480.679 248.547 480.679 252.757 478.073 255.363C475.467 257.969 471.258 257.969 468.652 255.363C466.046 252.757 466.046 248.547 468.652 245.941ZM411.122 93.6627C414.797 93.6627 417.803 96.6695 417.803 100.345C417.803 104.02 414.797 107.026 411.122 107.026C407.447 107.026 404.44 104.02 404.44 100.345C404.44 96.6695 407.38 93.6627 411.122 93.6627ZM378.648 211.396L398.226 191.819C397.958 190.75 397.758 189.614 397.758 188.411C397.758 183.466 400.431 179.19 404.44 176.918V132.15C404.44 128.475 407.447 125.468 411.122 125.468C414.797 125.468 417.803 128.475 417.803 132.15V176.918C421.812 179.257 424.485 183.466 424.485 188.411C424.485 195.761 418.472 201.775 411.122 201.775C409.919 201.775 408.783 201.574 407.714 201.307L388.136 220.885C386.8 222.221 385.129 222.822 383.392 222.822C381.655 222.822 379.984 222.154 378.648 220.885C376.042 218.279 376.042 214.002 378.648 211.396ZM344.103 121.392C346.709 118.786 350.918 118.786 353.524 121.392C356.13 123.998 356.13 128.208 353.524 130.814C350.918 133.42 346.709 133.42 344.103 130.814C341.497 128.275 341.497 123.998 344.103 121.392ZM344.103 245.941C346.709 243.335 350.918 243.335 353.524 245.941C356.13 248.547 356.13 252.757 353.524 255.363C350.918 257.969 346.709 257.969 344.103 255.363C341.497 252.757 341.497 248.547 344.103 245.941ZM323.055 195.093C319.38 195.093 316.373 192.086 316.373 188.411C316.373 184.736 319.38 181.729 323.055 181.729C326.73 181.729 329.737 184.736 329.737 188.411C329.737 192.086 326.73 195.093 323.055 195.093Z" fill="black"/>
</svg>
