<svg width="626" height="626" viewBox="0 0 626 626" fill="none" xmlns="http://www.w3.org/2000/svg">
<path d="M478.748 151.865C477.25 150.678 475.377 150.241 473.567 150.553C417.319 161.541 366.252 147.932 317.37 108.851C315.123 107.041 311.877 107.041 309.629 108.851C260.748 147.932 209.681 161.541 153.433 150.553C151.623 150.179 149.75 150.678 148.252 151.865C146.816 153.051 146.004 154.799 146.004 156.672V352.011C146.004 444.093 304.198 515.948 310.94 518.945C311.752 519.319 312.626 519.507 313.5 519.507C314.374 519.507 315.248 519.319 316.059 518.945C322.802 515.948 480.996 444.093 480.996 352.011V156.672C480.996 154.799 480.184 153.051 478.748 151.865ZM313.5 404.291C263.432 404.291 222.701 363.56 222.701 313.492C222.701 263.424 263.432 222.693 313.5 222.693C363.568 222.693 404.299 263.424 404.299 313.492C404.299 363.56 363.568 404.291 313.5 404.291Z" fill="black"/>
<path d="M313.5 235.179C270.318 235.179 235.187 270.31 235.187 313.492C235.187 356.674 270.318 391.805 313.5 391.805C356.681 391.805 391.813 356.674 391.813 313.492C391.813 270.31 356.681 235.179 313.5 235.179ZM356.264 286.454L293.36 349.358C292.14 350.577 290.543 351.187 288.946 351.187C287.349 351.187 285.751 350.577 284.532 349.358L270.735 335.565C268.297 333.129 268.297 329.176 270.735 326.737C273.174 324.298 277.125 324.298 279.563 326.737L288.946 336.116L347.436 277.626C349.875 275.188 353.825 275.188 356.264 277.626C358.702 280.065 358.702 284.015 356.264 286.454Z" fill="black"/>
</svg>
