<?xml version="1.0" encoding="UTF-8"?>
<svg version="1.1" xmlns="http://www.w3.org/2000/svg" width="500" height="500">
<path d="M0 0 C1.17500594 0.00027654 1.17500594 0.00027654 2.37374938 0.00055867 C3.19988726 -0.00311801 4.02602514 -0.0067947 4.8771975 -0.0105828 C7.66760903 -0.02166578 10.45798339 -0.02547135 13.24841368 -0.02927226 C15.24054136 -0.03553374 17.23266787 -0.04218026 19.22479308 -0.04918498 C24.65504726 -0.06663131 30.0852926 -0.07715794 35.5155679 -0.08539051 C38.90856991 -0.09053601 42.30156916 -0.09661213 45.69456923 -0.10290164 C56.31083523 -0.12196912 66.92709422 -0.13619346 77.54337406 -0.14451361 C89.7958056 -0.1542741 102.04805591 -0.18055611 114.30042362 -0.2210145 C123.76890408 -0.25120561 133.23733272 -0.26598558 142.70586038 -0.26929462 C148.36080613 -0.2716429 154.01555863 -0.28057372 159.67045271 -0.30575579 C164.99742931 -0.32909186 170.32408622 -0.33324739 175.65110075 -0.32299441 C177.60091144 -0.32250019 179.55073815 -0.32878702 181.50050032 -0.34255046 C196.47943034 -0.44232267 208.04395287 0.94077767 219.26648009 11.77272969 C226.79164245 19.87963777 228.74249493 28.89333598 228.70314085 39.68345052 C228.70442249 40.97005237 228.70442249 40.97005237 228.70573002 42.28264618 C228.70737653 45.1554199 228.701877 48.02813518 228.69641173 50.90090352 C228.69612965 52.96072813 228.69628799 55.02055285 228.69685423 57.0803774 C228.69714141 62.67288696 228.69125752 68.26537512 228.68428028 73.8578797 C228.67803351 79.70219119 228.67744189 85.54650315 228.67625487 91.39081746 C228.67314547 102.45814547 228.66493732 113.52546361 228.65490538 124.59278727 C228.64373213 137.19242034 228.63823073 149.79205388 228.63320994 162.39169067 C228.6227544 188.31037582 228.6051625 214.2290522 228.58288634 240.14772969 C229.59608946 240.12960225 230.60929259 240.11147481 231.65319884 240.09279805 C233.00475681 240.07813271 234.35631968 240.06391498 235.70788634 240.05007344 C236.37304259 240.0369814 237.03819884 240.02388936 237.72351134 240.01040059 C245.71014019 239.9492285 252.51337313 241.90070731 258.52038634 247.27272969 C267.01780603 257.34347563 266.17478758 268.80680175 266.11413634 281.27663594 C266.11683532 283.23618685 266.12072111 285.19573644 266.12573302 287.1552828 C266.13160756 291.24786642 266.12313034 295.34009919 266.10437071 299.4326418 C266.08156735 304.66010881 266.09472617 309.8867548 266.11866057 315.11419183 C266.13316103 319.15586377 266.12849336 323.19734318 266.1181494 327.23902112 C266.11549463 329.16580665 266.11870752 331.09261005 266.12806761 333.01937467 C266.1383053 335.71830669 266.12263306 338.41593501 266.10046446 341.11477071 C266.10856139 341.89891851 266.11665831 342.6830663 266.1250006 343.49097615 C266.01508807 350.76806869 263.40112016 356.3669015 259.45788634 362.39772969 C252.54443609 369.01059515 246.31994669 370.5573408 236.95788634 370.46022969 C234.16184831 370.39585177 231.37677883 370.28468521 228.58288634 370.14772969 C228.62929259 371.10292501 228.67569884 372.05812032 228.72351134 373.04226094 C229.0330165 384.12917813 227.66265475 393.39968885 220.40710509 402.30007344 C212.32159404 410.48946686 203.12083101 414.44802535 191.69360089 414.55362201 C190.71956417 414.54761196 189.74552746 414.54160192 188.74197447 414.53540975 C187.68440581 414.54079529 186.62683715 414.54618082 185.53722095 414.55172956 C182.01146976 414.56597889 178.48609561 414.55891268 174.96032774 414.55178243 C172.42515318 414.55748757 169.88998118 414.56445239 167.35481322 414.57258016 C161.1940719 414.58865046 155.03346865 414.5906153 148.87271275 414.58536725 C143.86252304 414.58131772 138.85236341 414.58277839 133.84217513 414.58811551 C132.77054033 414.58923815 132.77054033 414.58923815 131.67725634 414.59038346 C130.22567018 414.59191502 128.77408403 414.59345336 127.32249789 414.59499843 C113.72445495 414.60871118 100.12646962 414.60329452 86.528428 414.59181321 C74.10447696 414.58188323 61.68067491 414.59481957 49.25674684 414.61874741 C36.48160313 414.64316516 23.70652872 414.65273964 10.93136215 414.64609468 C3.76638857 414.64260825 -3.3984705 414.64479625 -10.56342638 414.66234571 C-17.30225662 414.6786475 -24.04075765 414.67384453 -30.77959573 414.65504056 C-33.24864528 414.65135827 -35.71771593 414.65445258 -38.186746 414.66492635 C-41.56556773 414.67816198 -44.94345244 414.66656474 -48.32223451 414.64893514 C-49.29180979 414.65854015 -50.26138506 414.66814515 -51.26034141 414.67804122 C-61.4259512 414.56942637 -71.08387307 411.38794821 -78.41711366 404.14772969 C-86.7056811 394.35821443 -88.84860005 385.35160092 -88.98648012 372.73302633 C-89.02313384 370.89220052 -89.02313384 370.89220052 -89.06052804 369.01418632 C-89.12439393 365.6282863 -89.17519179 362.24267797 -89.21974099 358.85650069 C-89.2602984 355.94645131 -89.31150701 353.03662477 -89.36252691 350.12674294 C-89.84549685 322.45561263 -90.08039222 294.77919591 -90.26968515 267.10469037 C-90.29478553 263.49940466 -90.32033246 259.89412245 -90.34631288 256.28884298 C-90.352748 255.39291722 -90.35918312 254.49699147 -90.36581324 253.57391645 C-90.47308808 239.10822513 -90.6986603 224.64682108 -90.97125687 210.18340276 C-91.24970975 195.28386754 -91.40796486 180.3865377 -91.45586801 165.48445839 C-91.48587313 157.13610578 -91.56798361 148.79556464 -91.78644121 140.44983464 C-93.22662617 83.66594266 -93.22662617 83.66594266 -79.57267356 67.90201372 C-73.43312765 61.44729015 -66.49371532 56.18822021 -59.08470905 51.28937846 C-54.08873697 47.86909713 -49.67584601 43.54252562 -45.42297304 39.25124532 C-44.7486725 38.57364156 -44.07437196 37.8960378 -43.37963808 37.19790059 C-42.68044252 36.4904067 -41.98124696 35.7829128 -41.26086366 35.05397969 C-40.51429506 34.30362447 -39.76772645 33.55326925 -38.99853456 32.78017598 C-36.63559341 30.40513049 -34.27593996 28.02686153 -31.91711366 25.64772969 C-28.8055072 22.50933752 -25.69047612 19.37440225 -22.57336366 16.24147969 C-21.87416811 15.5339858 -21.17497255 14.8264919 -20.45458925 14.0975588 C-16.43257014 10.05583687 -12.30227778 6.20945655 -7.97802675 2.49209005 C-5.15902683 0.0641831 -3.85130942 0.02432424 0 0 Z M4.58288634 9.14772969 C4.57408698 10.00311834 4.57408698 10.00311834 4.56510985 10.87578756 C4.500542 16.87966473 4.41597057 22.88303679 4.32043517 28.88649923 C4.28744076 31.11885281 4.25933198 33.35128471 4.23645079 35.58376485 C3.87448142 69.97855674 3.87448142 69.97855674 -6.41711366 81.14772969 C-15.66243725 90.05563272 -24.80167859 91.59024809 -37.32726991 91.65944844 C-39.13934183 91.68637525 -39.13934183 91.68637525 -40.98802125 91.71384603 C-44.81851734 91.76770848 -48.64889051 91.80176834 -52.47961366 91.83522969 C-55.08835463 91.8684239 -57.69707944 91.90291549 -60.30578554 91.93874532 C-66.67611798 92.02342125 -73.04646681 92.09187248 -79.41711366 92.14772969 C-79.53160133 129.17654806 -79.619684 166.20533972 -79.67244031 203.23429932 C-79.67869371 207.60762406 -79.68516534 211.98094845 -79.69177186 216.35427266 C-79.69308342 217.22490907 -79.69439497 218.09554548 -79.69574627 218.99256481 C-79.71749254 233.08289108 -79.75690976 247.17311518 -79.80287764 261.26338087 C-79.84966397 275.72532148 -79.87741366 290.18720865 -79.88755614 304.64922184 C-79.89441079 313.5704184 -79.91604685 322.49132612 -79.956696 331.41243376 C-79.98316125 337.53308613 -79.99110612 343.65358955 -79.98462055 349.77429496 C-79.98142348 353.30374623 -79.98626378 356.83269341 -80.01314104 360.36205465 C-80.04211437 364.19479938 -80.03202086 368.02689325 -80.01838624 371.85973531 C-80.03295045 372.9667638 -80.04751466 374.07379229 -80.06252021 375.21436709 C-79.97941004 383.87215654 -77.61507764 390.25831404 -72.10461366 396.96022969 C-66.6236934 401.42144386 -61.34153311 405.2651028 -54.07785642 405.28195077 C-53.186301 405.28640862 -52.29474557 405.29086646 -51.37617332 405.29545939 C-50.39565028 405.29527503 -49.41512723 405.29509066 -48.40489137 405.29490072 C-47.36399435 405.2985774 -46.32309733 405.30225409 -45.25065798 405.30604219 C-41.74551002 405.31709867 -38.2403917 405.32092623 -34.7352289 405.32473165 C-32.22887519 405.33099488 -29.72252242 405.33764155 -27.21617067 405.34464437 C-19.68152832 405.36388707 -12.14689117 405.37447568 -4.61223051 405.38337216 C-1.06257725 405.38775628 2.48707451 405.39312285 6.03672659 405.39836103 C17.83978938 405.41537472 29.64285124 405.42986762 41.4459244 405.43710977 C44.50891238 405.43901962 47.57190034 405.44093996 50.63488829 405.44289571 C51.39616606 405.44337945 52.15744384 405.44386319 52.94179063 405.44436159 C65.26655675 405.45265708 77.59122566 405.47798519 89.91594935 405.51047639 C102.57449348 405.54357497 115.23298826 405.56156114 127.89157587 405.56475401 C134.99682032 405.56691675 142.10192309 405.57563049 149.20712531 405.60121518 C155.89413993 405.62523853 162.58085595 405.62873031 169.26792014 405.6184538 C171.71965567 405.61795823 174.17140371 405.62428478 176.62310088 405.63800985 C179.97629778 405.65572817 183.32858056 405.64862188 186.68177855 405.63547689 C187.64668654 405.64644613 188.61159453 405.65741538 189.60574216 405.66871703 C197.26037349 405.59652218 203.83038733 403.74386949 210.16882384 399.35866719 C215.76924653 393.61150854 219.37241995 387.97898573 219.72937071 379.78518087 C219.71196837 378.64025167 219.69456603 377.49532247 219.67663634 376.31569844 C219.6563336 374.57776021 219.6563336 374.57776021 219.63562071 372.80471212 C219.61821837 371.92790792 219.60081603 371.05110372 219.58288634 370.14772969 C218.43159271 370.14626313 217.28029908 370.14479657 216.09411776 370.14328557 C188.7464989 370.10756069 161.39898607 370.05128651 134.05146349 369.96980874 C130.6832761 369.95979164 127.31508822 369.94994745 123.94690001 369.94021016 C123.27637248 369.93826879 122.60584495 369.93632742 121.9149984 369.93432721 C111.06701877 369.90333121 100.21906027 369.88633328 89.3710447 369.87453547 C78.23467495 369.86211146 67.0984021 369.83428561 55.9620977 369.79311663 C49.70920719 369.77048686 43.45647459 369.75481994 37.20353949 369.75584584 C31.31593985 369.75659154 25.42868952 369.73867645 19.54118025 369.70656186 C17.38253748 369.69805576 15.22385556 369.69631773 13.06520331 369.70192701 C10.11207808 369.70857751 7.16006084 369.69062049 4.2070471 369.66671163 C2.93317541 369.67835225 2.93317541 369.67835225 1.63356894 369.69022804 C-5.31657896 369.59098384 -11.23130708 367.6693766 -16.72180116 363.32351094 C-17.49910585 362.40118673 -17.49910585 362.40118673 -18.29211366 361.46022969 C-18.82578554 360.85823751 -19.35945741 360.25624532 -19.90930116 359.63601094 C-23.73835048 353.31708759 -24.86452624 346.7652077 -24.80529726 339.48195821 C-24.81055421 338.6676534 -24.81581117 337.85334859 -24.82122743 337.01436788 C-24.83431388 334.35158908 -24.82572923 331.68941967 -24.81555116 329.02663594 C-24.81757536 327.15773322 -24.82048967 325.28883127 -24.82424867 323.41993123 C-24.82865683 319.51393491 -24.82229047 315.60814524 -24.80822694 311.70217305 C-24.79114792 306.71814949 -24.80097777 301.73461115 -24.81894433 296.7506054 C-24.82983322 292.89420905 -24.82631231 289.03792594 -24.81856096 285.18152601 C-24.81657242 283.34488219 -24.81897043 281.50822779 -24.82599962 279.67159635 C-24.89733733 255.79421308 -24.89733733 255.79421308 -17.16320741 247.61647969 C-10.32488442 241.86433328 -3.12716435 240.99940288 5.52984679 240.98951131 C6.44389666 240.98457333 7.35794654 240.97963536 8.2996949 240.97454774 C11.36902509 240.95916362 14.43833436 240.95080961 17.50769103 240.94240743 C19.70529931 240.93282963 21.90290575 240.92281961 24.10051024 240.91240865 C30.07321159 240.88534293 36.04592086 240.86434236 42.0186497 240.84440666 C48.25803317 240.82255742 54.4973922 240.79516353 60.73675597 240.76835042 C71.21133399 240.72408691 81.68592143 240.68325407 92.16052306 240.64504415 C102.94927 240.60567888 113.73800576 240.56425018 124.52673399 240.52004415 C125.52430767 240.51595774 125.52430767 240.51595774 126.54203436 240.51178878 C129.87839985 240.49810913 133.21476516 240.48438668 136.55113041 240.47064847 C164.22835951 240.35680645 191.90561213 240.24997223 219.58288634 240.14772969 C219.67637652 213.07025568 219.7468886 185.99280589 219.79013503 158.91520292 C219.81074986 146.34226629 219.83885002 133.76943003 219.88464415 121.19655782 C219.92454473 110.23653861 219.95032699 99.2765921 219.95924032 88.31650227 C219.96444956 82.51456934 219.97667105 76.71284435 220.00580657 70.91097814 C220.03302635 65.4461443 220.04131798 59.98160339 220.03531706 54.5167082 C220.03641436 52.5148711 220.0443289 50.51302386 220.05970824 48.51124555 C220.25811983 32.70279156 220.25811983 32.70279156 213.75866759 18.56179219 C213.14378478 17.97140157 212.52890196 17.38101094 211.89538634 16.77272969 C211.29339415 16.16687032 210.69140196 15.56101094 210.07116759 14.93679219 C200.58449655 8.1159204 190.99192774 8.60065568 179.75256407 8.69362813 C177.83993105 8.69475754 175.9272963 8.69412092 174.01466429 8.69185811 C168.8416552 8.6907137 163.66901953 8.71417896 158.49609697 8.74215394 C153.08291259 8.76721301 147.66971901 8.76951315 142.25648558 8.77425557 C132.01440529 8.7866721 121.77249644 8.81947587 111.53049153 8.85965353 C99.86668373 8.90441237 88.20286761 8.92636864 76.53899527 8.94643527 C52.5535307 8.98820961 28.56821814 9.058536 4.58288634 9.14772969 Z M-7.19190919 13.80899984 C-8.35151407 14.97645993 -8.35151407 14.97645993 -9.5345453 16.16750509 C-10.84710046 17.48501508 -10.84710046 17.48501508 -12.18617189 18.82914144 C-12.65674076 19.30382926 -13.12730962 19.77851709 -13.61213815 20.26758939 C-15.08648693 21.75468264 -16.56391967 23.23864714 -18.04222047 24.72181112 C-21.7202952 28.41327663 -25.39305191 32.11001874 -29.0657953 35.80678731 C-32.15780264 38.91866432 -35.25193893 42.02839551 -38.34884393 45.13539869 C-39.79313421 46.58609875 -41.23433585 48.03981793 -42.6754297 49.49369222 C-47.2195098 54.05450409 -51.8123859 58.46907561 -56.70005739 62.6599825 C-59.01378753 64.66471908 -61.18871688 66.78976 -63.35461366 68.95241719 C-64.18605897 69.78257344 -65.01750429 70.61272969 -65.87414491 71.46804219 C-67.13291444 72.73261251 -67.13291444 72.73261251 -68.41711366 74.02272969 C-69.28723085 74.88897969 -70.15734804 75.75522969 -71.05383241 76.64772969 C-71.87496522 77.47015157 -72.69609804 78.29257344 -73.54211366 79.13991719 C-74.28719179 79.88612325 -75.03226991 80.6323293 -75.79992616 81.40114766 C-77.53034765 82.87330654 -77.53034765 82.87330654 -77.41711366 84.14772969 C-70.60362929 84.22415848 -63.79025661 84.27648793 -56.97643983 84.31252462 C-54.66129364 84.32755698 -52.34617566 84.3479884 -50.03112733 84.37404805 C-46.69227042 84.41067565 -43.35379196 84.42751211 -40.01476991 84.44069844 C-38.98940629 84.4561823 -37.96404268 84.47166616 -36.90760744 84.48761922 C-26.25800327 84.49008075 -19.33165467 82.006275 -11.58898866 74.62429219 C-6.2720067 68.56140269 -4.28162717 61.32932442 -4.30358827 53.35744649 C-4.3036638 52.43686956 -4.30373933 51.51629262 -4.30381715 50.56781942 C-4.30897844 49.587432 -4.31413972 48.60704458 -4.31945741 47.59694844 C-4.32087236 46.58300512 -4.32228731 45.56906179 -4.32374513 44.5243929 C-4.32933038 41.29464148 -4.34188022 38.06496007 -4.35461366 34.83522969 C-4.35963057 32.64187132 -4.36419314 30.44851186 -4.36828554 28.25515157 C-4.37929498 22.88598717 -4.39601847 17.51686343 -4.41711366 12.14772969 C-5.70060038 12.03383444 -5.70060038 12.03383444 -7.19190919 13.80899984 Z M-13.85461366 257.27272969 C-16.42649621 262.00499357 -16.57065648 265.93647558 -16.57824647 271.1958254 C-16.58321138 272.01567922 -16.58817628 272.83553304 -16.59329164 273.68023092 C-16.60790592 276.39466611 -16.61471425 279.10904286 -16.62023866 281.82351094 C-16.62599097 283.71057049 -16.6317487 285.59763002 -16.63751161 287.48468953 C-16.64801968 291.44325452 -16.65386354 295.40179921 -16.65734804 299.36037618 C-16.66283058 304.42787072 -16.68685432 309.49509627 -16.71531999 314.5625065 C-16.73396264 318.46161599 -16.73915285 322.36066093 -16.74068391 326.25981122 C-16.74370758 328.12768633 -16.75172648 329.99556038 -16.76486909 331.8633917 C-16.78196268 334.47961814 -16.78004127 337.09519045 -16.77355897 339.7114504 C-16.78277376 340.47997838 -16.79198854 341.24850637 -16.80148256 342.04032308 C-16.75371616 348.20814788 -15.07060711 352.0565468 -11.29211366 356.83522969 C-4.80621329 362.05214956 2.62233282 362.58813944 10.68470824 362.5219515 C11.66272255 362.5259259 12.64073686 362.52990031 13.64838797 362.53399515 C16.90478101 362.54357082 20.16073444 362.53182857 23.41711485 362.52004415 C25.76011373 362.52247365 28.10311157 362.52619451 30.44610655 362.53110677 C36.7951374 362.54049708 43.14401359 362.53110609 49.49303234 362.51777464 C55.46793711 362.507592 61.4428327 362.51007511 67.41774284 362.51197716 C79.25658951 362.51516265 91.0953759 362.50352422 102.9342047 362.48391134 C114.41013483 362.46490477 125.88599433 362.45782547 137.36193907 362.46340352 C149.87374894 362.46946713 162.38552781 362.46927392 174.89733511 362.45791769 C181.51499778 362.45193411 188.13264179 362.44824519 194.75030768 362.45088559 C200.97114892 362.4527707 207.1918997 362.44464734 213.41272032 362.4288252 C215.69435752 362.42458676 217.97600391 362.42372883 220.25764334 362.4265154 C223.37454382 362.42974428 226.49117525 362.42063737 229.60804808 362.40842611 C230.50854291 362.41220543 231.40903775 362.41598475 232.3368203 362.4198786 C239.06371637 362.3733344 246.2307404 362.07467541 251.45788634 357.33522969 C252.01218321 356.85440938 252.56648009 356.37358907 253.13757384 355.87819844 C256.93536892 351.33110866 256.88452158 346.30455405 256.88928282 340.62893087 C256.89760634 339.78273687 256.90592986 338.93654287 256.9145056 338.06470662 C256.93855781 335.27332344 256.94737205 332.48217419 256.95398009 329.69069844 C256.96295034 327.74402722 256.97207226 325.79735669 256.9813391 323.85068685 C256.99781886 319.77121731 257.00552732 315.69182974 257.00842345 311.6123293 C257.01380489 306.39690335 257.05147959 301.18225277 257.09716761 295.96704561 C257.12697918 291.94602599 257.13414791 287.92519213 257.1351496 283.90407163 C257.13934406 281.98200666 257.15174719 280.05994074 257.17266715 278.13798505 C257.19966568 275.44298855 257.19473131 272.74977691 257.18225157 270.05471212 C257.19708586 269.26846456 257.21192015 268.482217 257.22720397 267.67214376 C257.15227301 261.96065807 255.73000344 257.23570299 251.58288634 253.14772969 C245.67859235 249.10625225 240.30407716 248.57113486 233.29760802 248.633066 C232.28777971 248.62612047 231.27795141 248.61917494 230.23752224 248.61201894 C226.86739025 248.59378158 223.49796478 248.60400451 220.12780821 248.61428243 C217.7061364 248.60722239 215.28446901 248.59847703 212.86280882 248.58817464 C206.9763107 248.56801628 201.0899909 248.56665033 195.20348048 248.57480019 C190.41777499 248.58110987 185.6321258 248.57995431 180.84642088 248.57352811 C180.16430036 248.57262646 179.48217984 248.5717248 178.77938899 248.57079582 C177.3935081 248.56894455 176.00762722 248.56708199 174.62174636 248.56520826 C161.63801813 248.54864501 148.65439869 248.5573367 135.67067701 248.57419384 C123.80071906 248.58889236 111.93101422 248.57425779 100.06108886 248.54542368 C87.86115548 248.51600946 75.66133882 248.5050631 63.46137154 248.51460588 C62.08069831 248.51562839 60.70002506 248.516623 59.31935179 248.51758939 C58.64010215 248.51806578 57.96085252 248.51854217 57.26101956 248.519033 C52.48316709 248.52119431 47.70542552 248.51140831 42.92759764 248.49681836 C36.49246056 248.4774409 30.05767907 248.48440907 23.62255728 248.50901777 C21.26190421 248.51402833 18.90121532 248.51052965 16.54059088 248.49786931 C13.31590744 248.48194389 10.09277501 248.49688662 6.86816466 248.51954061 C5.93586012 248.50770488 5.00355558 248.49586915 4.04299939 248.48367476 C-3.77908164 248.59518143 -9.01422497 251.06710316 -13.85461366 257.27272969 Z " fill="#F34504" transform="translate(161.41711366176605,42.85227030515671)"/>
<path d="M0 0 C5.76242013 4.56270316 8.94790016 9.67592878 10.3828125 16.88671875 C10.66727202 20.41002301 10.66648978 23.91924788 10.6574707 27.45263672 C10.66258163 28.49258789 10.66769257 29.53253906 10.67295837 30.60400391 C10.68681593 34.02903051 10.68590041 37.45385501 10.68359375 40.87890625 C10.68748286 43.26872838 10.69181798 45.65854981 10.69657898 48.04837036 C10.70403301 53.05326581 10.70375586 58.05809071 10.69848633 63.06298828 C10.69269378 69.4640604 10.70962179 75.86484297 10.732831 82.26586723 C10.74759133 87.20050738 10.74843687 92.13507817 10.74532127 97.06973648 C10.74583336 99.42914529 10.7510498 101.78855809 10.76113319 104.1479454 C10.77352416 107.45282337 10.76668947 110.75714213 10.75512695 114.06201172 C10.76277069 115.02853668 10.77041443 115.99506165 10.77828979 116.99087524 C10.70835533 126.07362036 8.79920797 133.40099104 2.4296875 140.046875 C-14.71450206 155.45701486 -43.11290625 158.13948145 -65.16650391 157.05517578 C-85.38013256 155.66571535 -107.08654188 151.95225707 -121.9609375 137.109375 C-126.82258536 130.5851353 -127.05576199 124.63947457 -127.02124023 116.75415039 C-127.03153511 115.10403206 -127.03153511 115.10403206 -127.04203796 113.420578 C-127.06029078 109.79587784 -127.05647049 106.17161112 -127.05078125 102.546875 C-127.05534369 100.02013509 -127.06064945 97.49339642 -127.06666565 94.96665955 C-127.07559376 89.67506277 -127.07341173 84.38362299 -127.06323242 79.09204102 C-127.05175398 72.99060035 -127.06582793 66.88959939 -127.0926289 60.78821665 C-127.11751961 54.89942267 -127.11995335 49.01076448 -127.11351204 43.12191582 C-127.11335888 40.62491563 -127.11939898 38.12790696 -127.13180351 35.63093758 C-127.14671806 32.13652167 -127.1360317 28.64306791 -127.11889648 25.14868164 C-127.13339844 23.60934464 -127.13339844 23.60934464 -127.14819336 22.03890991 C-127.07207091 14.60716829 -125.4455113 9.41458533 -120.78515625 3.6015625 C-91.67217618 -22.52547089 -31.36230011 -21.07583141 0 0 Z M-114.3125 10.39453125 C-116.89014853 13.34262029 -117.62762391 15.32315251 -117.5546875 19.26171875 C-116.32478719 24.0173333 -113.94688717 27.25671362 -109.94995117 30.05322266 C-108.07959626 31.12599734 -106.1891137 32.08525369 -104.2421875 33.01171875 C-103.54681885 33.35082275 -102.8514502 33.68992676 -102.13500977 34.03930664 C-88.22044204 40.57319929 -73.91863224 42.12348855 -58.6796875 42.13671875 C-57.98466125 42.13739349 -57.28963501 42.13806824 -56.57354736 42.13876343 C-38.56948867 42.11095452 -17.50010787 40.43087165 -3.8359375 27.15625 C-1.14701422 24.18194571 0.7542382 21.93571686 1.3828125 17.88671875 C-0.30847663 11.29069114 -5.6044831 7.47464398 -11.20703125 4.14453125 C-39.9119302 -10.83598327 -88.82996379 -12.04531407 -114.3125 10.39453125 Z M-117.6171875 34.88671875 C-117.73408376 38.26142379 -117.80466684 41.63560305 -117.8671875 45.01171875 C-117.90070313 45.96304688 -117.93421875 46.914375 -117.96875 47.89453125 C-118.05031483 53.76719874 -117.68673537 57.31111311 -113.6171875 61.88671875 C-97.57095448 76.57360238 -72.39653238 78.71196768 -51.6171875 77.88671875 C-34.25775555 76.73080431 -16.2265846 73.48510528 -2.6171875 61.88671875 C0.85095844 57.92312339 1.51546663 54.51953008 1.48046875 49.33984375 C1.47724609 48.49550781 1.47402344 47.65117187 1.47070312 46.78125 C1.46232422 45.90855469 1.45394531 45.03585938 1.4453125 44.13671875 C1.44080078 43.24855469 1.43628906 42.36039063 1.43164062 41.4453125 C1.4198865 39.25904546 1.40345499 37.07291696 1.3828125 34.88671875 C0.43921875 35.4178125 -0.504375 35.94890625 -1.4765625 36.49609375 C-29.64125939 52.10869083 -63.66708347 54.4673802 -94.6171875 45.78515625 C-102.29860762 43.49204028 -108.9524614 40.32051548 -115.6171875 35.88671875 C-116.2771875 35.55671875 -116.9371875 35.22671875 -117.6171875 34.88671875 Z M-3.1796875 72.51171875 C-19.81378346 83.62739425 -39.27120099 85.14017565 -58.6796875 85.26171875 C-59.39590271 85.26975525 -60.11211792 85.27779175 -60.85003662 85.28607178 C-79.45325702 85.44410949 -97.90964192 82.41965848 -113.7265625 72.0234375 C-115.53518954 70.71495984 -115.53518954 70.71495984 -117.6171875 70.88671875 C-117.73417008 74.09474108 -117.80469357 77.302209 -117.8671875 80.51171875 C-117.90070313 81.41535156 -117.93421875 82.31898438 -117.96875 83.25 C-118.05285296 89.01105277 -117.54545255 92.36052309 -113.6171875 96.88671875 C-99.26416367 110.98400941 -75.39519541 113.14496281 -56.27636719 113.13549805 C-38.20647734 112.89426536 -18.00051844 109.57162788 -3.6171875 97.88671875 C0.43460454 93.41772648 1.52057768 90.2759649 1.48046875 84.33984375 C1.47724609 83.49550781 1.47402344 82.65117187 1.47070312 81.78125 C1.46232422 80.90855469 1.45394531 80.03585938 1.4453125 79.13671875 C1.44080078 78.24855469 1.43628906 77.36039062 1.43164062 76.4453125 C1.4198865 74.25904546 1.40345499 72.07291696 1.3828125 69.88671875 C-0.40895771 69.88671875 -1.78638551 71.4806224 -3.1796875 72.51171875 Z M-117.6171875 105.88671875 C-117.7047002 109.11571301 -117.75774896 112.34439991 -117.8046875 115.57421875 C-117.82982422 116.48623047 -117.85496094 117.39824219 -117.88085938 118.33789062 C-117.94892075 124.57685043 -117.19136718 127.8845898 -113.06640625 132.6953125 C-95.81407363 148.64702581 -69.89075559 148.51040091 -47.87304688 148.01855469 C-32.96056165 147.4147198 -14.61885894 143.62713678 -3.6171875 132.88671875 C0.07346919 128.81753317 1.51722865 125.91472534 1.48046875 120.4375 C1.47724609 119.58994141 1.47402344 118.74238281 1.47070312 117.86914062 C1.46232422 116.98806641 1.45394531 116.10699219 1.4453125 115.19921875 C1.44080078 114.30654297 1.43628906 113.41386719 1.43164062 112.49414062 C1.41986233 110.29159888 1.40341414 108.08919276 1.3828125 105.88671875 C-2.5842131 107.37343335 -6.2020732 109.25555265 -9.9296875 111.26171875 C-35.06177821 124.13807803 -68.5798805 123.74112607 -95.17578125 116.0234375 C-103.1325982 113.39524938 -110.39804364 110.10384239 -117.6171875 105.88671875 Z " fill="#F34504" transform="translate(326.6171875,105.11328125)"/>
<path d="M0 0 C0.79434543 0.00446144 1.58869085 0.00892289 2.40710735 0.01351953 C3.66937161 0.00883955 3.66937161 0.00883955 4.95713615 0.00406504 C7.79315038 -0.00394897 10.62895265 0.00242186 13.46496868 0.00869775 C15.49155077 0.00598939 17.51813188 0.00242934 19.54471111 -0.00192237 C25.06110436 -0.01106717 30.5774231 -0.00749352 36.09381771 -0.0011642 C41.85580178 0.003885 47.61777929 -0.00079263 53.3797636 -0.00393653 C63.05759106 -0.00757933 72.73538803 -0.00276884 82.41321087 0.00674462 C93.61606794 0.01762976 104.81885223 0.01410441 116.02170753 0.00309181 C125.625103 -0.00597212 135.22847649 -0.00727073 144.83187485 -0.00203085 C150.57419879 0.00109378 156.31648847 0.00148472 162.05881023 -0.00510383 C167.45629963 -0.01086368 172.8536948 -0.00690543 178.25117397 0.00468469 C180.23700459 0.00733858 182.22284309 0.00655384 184.20867062 0.00215936 C186.90985315 -0.00326889 189.61072972 0.00350469 192.31189251 0.01351953 C193.10623794 0.00905808 193.90058336 0.00459664 194.71899986 0 C200.13119984 0.03918672 200.13119984 0.03918672 202.35949993 2.26748681 C202.60949993 4.76748681 202.60949993 4.76748681 202.35949993 7.26748681 C199.81478321 9.81220353 198.18924727 9.5098475 194.71899986 9.53497362 C193.52748172 9.52828146 193.52748172 9.52828146 192.31189251 9.5214541 C191.47038301 9.52457408 190.6288735 9.52769406 189.76186371 9.53090858 C186.92584949 9.53892259 184.09004722 9.53255176 181.25403118 9.52627587 C179.22744909 9.52898423 177.20086798 9.53254428 175.17428875 9.53689599 C169.6578955 9.54604079 164.14157676 9.54246714 158.62518215 9.53613782 C152.86319808 9.53108862 147.10122057 9.53576625 141.33923626 9.53891015 C131.6614088 9.54255296 121.98361183 9.53774246 112.30578899 9.528229 C101.10293192 9.51734386 89.90014764 9.52086921 78.69729233 9.53188181 C69.09389687 9.54094574 59.49052337 9.54224435 49.88712502 9.53700447 C44.14480108 9.53387984 38.40251139 9.5334889 32.66018963 9.54007745 C27.26270024 9.5458373 21.86530506 9.54187905 16.46782589 9.53028893 C14.48199527 9.52763504 12.49615678 9.52841978 10.51032925 9.53281426 C7.80914672 9.53824251 5.10827015 9.53146893 2.40710735 9.5214541 C1.61276193 9.52591554 0.8184165 9.53037698 0 9.53497362 C-5.41219998 9.4957869 -5.41219998 9.4957869 -7.64050007 7.26748681 C-7.89050007 4.76748681 -7.89050007 4.76748681 -7.64050007 2.26748681 C-5.09578335 -0.27722991 -3.4702474 0.02512613 0 0 Z " fill="#F24504" transform="translate(184.64050006866455,332.7325131893158)"/>
<path d="M0 0 C1.37333496 -0.01062721 1.37333496 -0.01062721 2.77441406 -0.02146912 C4.28540428 -0.01775299 4.28540428 -0.01775299 5.82691956 -0.01396179 C6.88553192 -0.01907272 7.94414429 -0.02418365 9.03483582 -0.02944946 C12.54835093 -0.0433957 16.061671 -0.0423849 19.57521057 -0.04008484 C22.00897292 -0.043969 24.44273458 -0.04830308 26.87649536 -0.05307007 C31.98352758 -0.06054312 37.09049068 -0.06023314 42.19752502 -0.05497742 C48.75290683 -0.04918141 55.30800624 -0.06611196 61.86334133 -0.08932209 C66.89125227 -0.10403014 71.91909475 -0.10493512 76.94702339 -0.10181236 C79.36442181 -0.10232705 81.78182392 -0.10759224 84.19920158 -0.11762428 C87.57529603 -0.1299145 90.95083449 -0.12324136 94.32691956 -0.11161804 C95.33222214 -0.11926178 96.33752472 -0.12690552 97.37329102 -0.13478088 C98.29166748 -0.12776657 99.21004395 -0.12075226 100.15625 -0.11352539 C100.95469047 -0.11369313 101.75313093 -0.11386087 102.57576656 -0.1140337 C105.17263555 0.35701932 106.09293068 1.15039324 107.64161682 3.26069641 C107.22056419 7.68174904 107.22056419 7.68174904 105.64161682 9.26069641 C104.21680911 9.36055593 102.78709491 9.39144554 101.35879517 9.39440918 C100.43475388 9.39867416 99.51071259 9.40293915 98.55867004 9.40733337 C97.53682617 9.40688019 96.5149823 9.406427 95.46217346 9.40596008 C94.39234726 9.4093187 93.32252106 9.41267731 92.22027588 9.4161377 C88.66409665 9.42568013 85.10796433 9.42759244 81.55177307 9.42866516 C79.09176615 9.43187538 76.63175943 9.43523927 74.17175293 9.43875122 C69.00748756 9.44475069 63.84323895 9.44659028 58.67897034 9.44599915 C52.04617765 9.44589746 45.41349186 9.45955261 38.78072453 9.47677135 C33.69796246 9.48786392 28.61522647 9.4899192 23.53245354 9.48938942 C21.08631967 9.49057358 18.64018521 9.49501953 16.19406319 9.50272179 C12.77944982 9.51246671 9.36507147 9.50966547 5.95045471 9.50361633 C4.93063507 9.50923584 3.91081543 9.51485535 2.86009216 9.52064514 C1.46980049 9.51435341 1.46980049 9.51435341 0.05142212 9.50793457 C-1.16063101 9.50875172 -1.16063101 9.50875172 -2.39717007 9.50958538 C-4.35838318 9.26069641 -4.35838318 9.26069641 -6.35838318 7.26069641 C-6.60838318 4.76069641 -6.60838318 4.76069641 -6.35838318 2.26069641 C-3.92654741 -0.17113936 -3.33035442 0.00856672 0 0 Z " fill="#F34604" transform="translate(183.35838317871094,375.7393035888672)"/>
<path d="M0 0 C1.00818283 -0.00426498 2.01636566 -0.00852997 3.05509949 -0.01292419 C4.17045074 -0.01247101 5.285802 -0.01201782 6.43495178 -0.0115509 C7.60231369 -0.01490952 8.7696756 -0.01826813 9.97241211 -0.02172852 C13.18313865 -0.029624 16.39382646 -0.03290744 19.60456157 -0.0335443 C22.28112464 -0.03449184 24.95768145 -0.03816835 27.63424212 -0.0417164 C33.94704698 -0.04986838 40.25983757 -0.05229996 46.57264709 -0.05158997 C53.09316209 -0.050989 59.6135944 -0.06154274 66.13408846 -0.07733363 C71.72475575 -0.09039222 77.31539596 -0.09577457 82.9060784 -0.09513456 C86.24845981 -0.09487907 89.5907678 -0.0977581 92.93313408 -0.10831261 C96.65907118 -0.11805535 100.38479283 -0.11525714 104.11073303 -0.10920715 C105.78072357 -0.11763641 105.78072357 -0.11763641 107.48445129 -0.12623596 C108.49545395 -0.12204147 109.5064566 -0.11784698 110.5480957 -0.11352539 C111.42987456 -0.11407016 112.31165342 -0.11461493 113.22015285 -0.1151762 C115.33753967 0.13371277 115.33753967 0.13371277 117.33753967 2.13371277 C116.78198412 6.68926832 116.78198412 6.68926832 115.33753967 8.13371277 C113.78365804 8.23176141 112.22532203 8.26003139 110.66835022 8.26069641 C109.15390823 8.26492615 109.15390823 8.26492615 107.60887146 8.26924133 C105.93348801 8.26620499 105.93348801 8.26620499 104.22425842 8.2631073 C102.47080612 8.26573578 102.47080612 8.26573578 100.68193054 8.26841736 C97.46713528 8.27207541 94.25238089 8.27120253 91.03758621 8.26803827 C87.68013164 8.26551419 84.32267989 8.26785235 80.96522522 8.26942444 C75.32597866 8.27124599 69.68674518 8.2688402 64.04750061 8.26408386 C57.51903708 8.25864127 50.99060477 8.26040393 44.46214199 8.26591027 C38.86639608 8.2704418 33.2706596 8.27109175 27.67491245 8.2684716 C24.32867483 8.26690905 20.9824519 8.26671446 17.63621521 8.27000809 C13.90772862 8.27253291 10.17930294 8.26869641 6.45082092 8.2631073 C5.33389862 8.26513153 4.21697632 8.26715576 3.06620789 8.26924133 C2.0565799 8.26642151 1.0469519 8.26360168 0.00672913 8.26069641 C-0.87597153 8.26031939 -1.75867218 8.25994236 -2.66812134 8.25955391 C-4.66246033 8.13371277 -4.66246033 8.13371277 -5.66246033 7.13371277 C-5.78746033 4.13371277 -5.78746033 4.13371277 -5.66246033 1.13371277 C-4.03836486 -0.4903827 -2.2438741 0.00426637 0 0 Z " fill="#F34505" transform="translate(182.66246032714844,354.8662872314453)"/>
<path d="M0 0 C0.6687616 -0.0021904 1.33752319 -0.0043808 2.02655029 -0.00663757 C4.23101724 -0.00894395 6.4341395 0.01727727 8.63842773 0.04418945 C10.17251664 0.04911455 11.70661157 0.05241265 13.2407074 0.05415344 C16.45282237 0.06178841 19.66449095 0.0823338 22.87646484 0.11328125 C26.99465949 0.15288907 31.11256405 0.17089623 35.23092747 0.18059063 C39.15846687 0.19056239 43.0859355 0.21044654 47.01342773 0.23168945 C48.13838748 0.23678308 48.13838748 0.23678308 49.28607368 0.2419796 C51.40694726 0.25355483 53.5276377 0.2720752 55.6484375 0.29296875 C56.85548843 0.30281296 58.06253937 0.31265717 59.3061676 0.32279968 C62.25952148 0.4699707 62.25952148 0.4699707 65.25952148 1.4699707 C65.88452148 4.3449707 65.88452148 4.3449707 66.25952148 7.4699707 C64.25952148 9.4699707 64.25952148 9.4699707 61.24765015 9.71047974 C59.30905624 9.7038179 59.30905624 9.7038179 57.33129883 9.69702148 C56.26284477 9.69745956 56.26284477 9.69745956 55.17280579 9.69790649 C52.81356714 9.69651086 50.4546426 9.68093897 48.09545898 9.6652832 C46.46164116 9.6615539 44.8278211 9.65870654 43.19400024 9.65670776 C38.88999273 9.6490648 34.5861198 9.62941069 30.28216553 9.6072998 C25.89182354 9.5868556 21.50145984 9.5777091 17.11108398 9.56762695 C8.49383466 9.54616537 -0.12330519 9.51202151 -8.74047852 9.4699707 C-9.40047852 7.8199707 -10.06047852 6.1699707 -10.74047852 4.4699707 C-7.42359014 0.3296869 -5.21401759 -0.02532332 0 0 Z " fill="#F24604" transform="translate(233.740478515625,310.530029296875)"/>
<path d="M0 0 C0.6489624 -0.0049649 1.2979248 -0.00992981 1.96655273 -0.01504517 C4.1164658 -0.02966773 6.26630511 -0.03646838 8.41625977 -0.04199219 C9.908371 -0.04774293 11.4004822 -0.05350067 12.89259338 -0.05926514 C16.02231186 -0.06977495 19.15200464 -0.07561795 22.28173828 -0.07910156 C26.29472397 -0.08459073 30.30737111 -0.10862748 34.32025051 -0.13707352 C37.40258278 -0.155683 40.48483316 -0.16090455 43.56721687 -0.16243744 C45.04682329 -0.16546761 46.52642814 -0.17350844 48.00597954 -0.18662262 C50.07456231 -0.20365101 52.14231336 -0.20181157 54.2109375 -0.1953125 C55.38849106 -0.19895813 56.56604462 -0.20260376 57.77928162 -0.20635986 C60.67016602 0.16113281 60.67016602 0.16113281 62.5894928 1.51934814 C63.67016602 3.16113281 63.67016602 3.16113281 63.42016602 5.78613281 C62.67016602 8.16113281 62.67016602 8.16113281 61.67016602 9.16113281 C59.53373395 9.27118828 57.39362576 9.3102686 55.25439453 9.32226562 C54.24949982 9.32971298 54.24949982 9.32971298 53.2243042 9.33731079 C50.9992166 9.35196427 48.77420027 9.35873932 46.54907227 9.36425781 C45.00829566 9.37000625 43.46751909 9.37576401 41.92674255 9.38153076 C38.69269476 9.39204955 35.45867189 9.39788659 32.22460938 9.40136719 C28.07361796 9.40685657 23.92295381 9.43089006 19.77206516 9.45933914 C16.58854703 9.47793046 13.4051083 9.48316921 10.22154045 9.48470306 C8.69086859 9.48773763 7.16019839 9.4957931 5.62957954 9.50888824 C3.49124113 9.52587791 1.35370989 9.52408662 -0.78466797 9.51757812 C-2.00298813 9.52122375 -3.22130829 9.52486938 -4.47654724 9.52862549 C-5.41813187 9.40735291 -6.35971649 9.28608032 -7.32983398 9.16113281 C-9.32983398 6.16113281 -9.32983398 6.16113281 -9.07983398 3.53613281 C-8.83233398 2.75238281 -8.58483398 1.96863281 -8.32983398 1.16113281 C-5.51290257 -0.24733289 -3.15058446 0.0182809 0 0 Z " fill="#F34604" transform="translate(323.329833984375,375.8388671875)"/>
<path d="M0 0 C1.24072266 -0.01611328 2.48144531 -0.03222656 3.75976562 -0.04882812 C4.95150391 -0.04947266 6.14324219 -0.05011719 7.37109375 -0.05078125 C8.46220459 -0.05376221 9.55331543 -0.05674316 10.67749023 -0.05981445 C13.86144513 0.35107928 15.22427725 1.17104611 17.5625 3.3125 C16.6875 8.1875 16.6875 8.1875 15.5625 9.3125 C13.28302208 9.4127093 11.00042865 9.44331303 8.71875 9.4453125 C8.03445923 9.44626923 7.35016846 9.44722595 6.6451416 9.44821167 C5.19588123 9.4488933 3.74661782 9.44704023 2.29736328 9.44287109 C0.07187072 9.43752252 -2.15342001 9.4428166 -4.37890625 9.44921875 C-5.78385461 9.44855797 -7.18880285 9.4472768 -8.59375 9.4453125 C-9.88087891 9.44418457 -11.16800781 9.44305664 -12.49414062 9.44189453 C-15.4375 9.3125 -15.4375 9.3125 -16.4375 8.3125 C-16.6875 5.375 -16.6875 5.375 -16.4375 2.3125 C-11.47930365 -0.99296423 -5.82425792 -0.01508094 0 0 Z " fill="#F24604" transform="translate(193.4375,310.6875)"/>
</svg>
