<svg xmlns="http://www.w3.org/2000/svg" viewBox="0 0 64 64" id="sqlitefile">
  <path d="M17.008 57.392a3.522 3.522 0 0 1-1.738-.473 2.759 2.759 0 0 1-.782-.622 3.692 3.692 0 0 1-.583-.973l1.463-.638a4.2 4.2 0 0 0 .286.522 1.79 1.79 0 0 0 .352.4 1.5 1.5 0 0 0 .457.258 1.705 1.705 0 0 0 .589.093 2.319 2.319 0 0 0 .45-.043 1.2 1.2 0 0 0 .391-.149.734.734 0 0 0 .269-.286.933.933 0 0 0 .1-.456.8.8 0 0 0-.418-.682 5.435 5.435 0 0 0-1.112-.55 6.939 6.939 0 0 1-1.9-1 1.93 1.93 0 0 1-.66-1.551 2.01 2.01 0 0 1 .77-1.617 2.914 2.914 0 0 1 1.925-.638 3.26 3.26 0 0 1 1.739.473 2.625 2.625 0 0 1 .681.594 3.875 3.875 0 0 1 .539.924l-1.617.495a2.253 2.253 0 0 0-.5-.765 1.18 1.18 0 0 0-.852-.291 1.765 1.765 0 0 0-.358.038 1.189 1.189 0 0 0-.33.121.647.647 0 0 0-.336.589.56.56 0 0 0 .105.319 1.056 1.056 0 0 0 .357.3 7.463 7.463 0 0 0 1.188.528 5.69 5.69 0 0 1 1.672.891 1.982 1.982 0 0 1 .782 1.694 2.311 2.311 0 0 1-.771 1.858 3.28 3.28 0 0 1-2.158.637zm8.714-.363a3.28 3.28 0 0 1-1.669.363 3.527 3.527 0 0 1-1.615-.336 2.917 2.917 0 0 1-1.071-.913 3.8 3.8 0 0 1-.593-1.342 7.264 7.264 0 0 1 0-3.223 3.8 3.8 0 0 1 .593-1.342 2.927 2.927 0 0 1 1.071-.913 3.54 3.54 0 0 1 1.615-.335 3.488 3.488 0 0 1 1.608.336 2.937 2.937 0 0 1 1.066.914 3.8 3.8 0 0 1 .592 1.344A6.978 6.978 0 0 1 27.5 53.2a5.05 5.05 0 0 1-.747 2.919.968.968 0 0 0 .341.166 3.181 3.181 0 0 0 .6.1v1.5a3.312 3.312 0 0 1-1.1-.16 1.629 1.629 0 0 1-.731-.511 2.288 2.288 0 0 0-.141-.185zm.03-3.861a3.927 3.927 0 0 0-.419-2.024 1.582 1.582 0 0 0-2.571 0 5.084 5.084 0 0 0 0 4.047 1.388 1.388 0 0 0 1.291.661 1.438 1.438 0 0 0 .772-.165 1.453 1.453 0 0 0-.381-.374 1.346 1.346 0 0 0-.524-.2v-1.582a2.646 2.646 0 0 1 1.01.275 2.1 2.1 0 0 1 .7.605 5.247 5.247 0 0 0 .122-1.243zm2.706-4.068h1.749v6.688h3.454v1.5h-5.2zm6.325 0h1.749v8.184h-1.749zm6.644 8.182h-1.748v-6.688H37.61V49.1h5.9v1.5h-2.083zm2.992-8.182h5.489v1.5h-3.74v1.672H48.9v1.5l-2.728.011v2.013h3.868v1.5h-5.621zM18.518 20.44h2.357v1.018h-2.357z" fill="#4c78ce" class="color000000 svgShape"></path>
  <path d="M53.84 17.73a1.661 1.661 0 0 0-.13-.14v-.01L39.42 3.3v-.01c-.02-.02-.05-.04-.07-.06s-.06-.05-.08-.07L39.12 3H14a4 4 0 0 0-4 4v50a4 4 0 0 0 4 4h36a4 4 0 0 0 4-4V17.88ZM39.71 6.42l10.87 10.87h-8.87a2.006 2.006 0 0 1-2-2Zm-22.292 4.826H32v5.779H17.418Zm0 8.275H32V25.3H17.418Zm0 8.275H32v5.779H17.418ZM52 57a2.006 2.006 0 0 1-2 2H14a2.006 2.006 0 0 1-2-2V43.46h13.73l2.7 3.09a.981.981 0 0 0 .75.34H52Z" fill="#4c78ce" class="color000000 svgShape"></path>
  <path d="M18.518 12.165h2.357v1.018h-2.357zM18.518 28.715h2.357v1.018h-2.357z" fill="#4c78ce" class="color000000 svgShape"></path>
</svg>
